<?xml version="1.0" encoding="UTF-8" standalone="no"?>
<!-- Created with Inkscape (http://www.inkscape.org/) -->

<svg
   xmlns:dc="http://purl.org/dc/elements/1.1/"
   xmlns:cc="http://creativecommons.org/ns#"
   xmlns:rdf="http://www.w3.org/1999/02/22-rdf-syntax-ns#"
   xmlns:svg="http://www.w3.org/2000/svg"
   xmlns="http://www.w3.org/2000/svg"
   xmlns:xlink="http://www.w3.org/1999/xlink"
   xmlns:sodipodi="http://sodipodi.sourceforge.net/DTD/sodipodi-0.dtd"
   xmlns:inkscape="http://www.inkscape.org/namespaces/inkscape"
   width="48"
   height="48"
   id="svg14"
   sodipodi:version="0.32"
   inkscape:version="0.47pre4 r22446"
   sodipodi:docname="ibus-handwrite.svg"
   version="1.0"
   inkscape:output_extension="org.inkscape.output.svg.inkscape"
   inkscape:export-filename="/home/cai/workspace/ibus-handwrite/icons/ibus-handwrite.png"
   inkscape:export-xdpi="90"
   inkscape:export-ydpi="90">
  <defs
     id="defs3">
    <inkscape:perspective
       id="perspective5155"
       inkscape:persp3d-origin="-118.63449 : 140.00364 : 1"
       inkscape:vp_z="-139.51035 : 161.52715 : 1"
       inkscape:vp_y="0 : 127.93874 : 0"
       inkscape:vp_x="-83.008631 : 147.52715 : 1"
       sodipodi:type="inkscape:persp3d" />
    <linearGradient
       inkscape:collect="always"
       id="linearGradient5071">
      <stop
         style="stop-color:#ff0000;stop-opacity:1;"
         offset="0"
         id="stop5073" />
      <stop
         style="stop-color:#ff0000;stop-opacity:0;"
         offset="1"
         id="stop5075" />
    </linearGradient>
    <linearGradient
       id="linearGradient3613">
      <stop
         style="stop-color:#fff500;stop-opacity:1;"
         offset="0"
         id="stop3615" />
      <stop
         style="stop-color:#ffd000;stop-opacity:0.70588237;"
         offset="1"
         id="stop3617" />
    </linearGradient>
    <linearGradient
       id="linearGradient3186">
      <stop
         id="stop3188"
         offset="0"
         style="stop-color:#ff0000;stop-opacity:1;" />
      <stop
         id="stop3190"
         offset="1"
         style="stop-color:#fb4b12;stop-opacity:0.77840906;" />
    </linearGradient>
    <linearGradient
       id="linearGradient3174">
      <stop
         style="stop-color:#000000;stop-opacity:1;"
         offset="0"
         id="stop3176" />
      <stop
         style="stop-color:#000000;stop-opacity:0;"
         offset="1"
         id="stop3178" />
    </linearGradient>
    <inkscape:perspective
       sodipodi:type="inkscape:persp3d"
       inkscape:vp_x="32.130347 : 11.613936 : 1"
       inkscape:vp_y="-53.674111 : 6.8267173 : 0"
       inkscape:vp_z="-0.41983465 : -186.39915 : 1"
       inkscape:persp3d-origin="31.024737 : 7.2728663 : 1"
       id="perspective23" />
    <linearGradient
       id="linearGradient4234">
      <stop
         id="stop4236"
         offset="0"
         style="stop-color:#c1e3ff;stop-opacity:1;" />
      <stop
         id="stop4238"
         offset="1"
         style="stop-color:#56ace5;stop-opacity:1;" />
    </linearGradient>
    <linearGradient
       inkscape:collect="always"
       xlink:href="#linearGradient3186"
       id="linearGradient3184"
       x1="20.957657"
       y1="35.310341"
       x2="36.531876"
       y2="35.310341"
       gradientUnits="userSpaceOnUse" />
    <linearGradient
       inkscape:collect="always"
       xlink:href="#linearGradient3613"
       id="linearGradient3621"
       x1="28.75"
       y1="-80.375"
       x2="119"
       y2="-80.375"
       gradientUnits="userSpaceOnUse" />
    <radialGradient
       inkscape:collect="always"
       xlink:href="#linearGradient5071"
       id="radialGradient5077"
       cx="-29.231762"
       cy="-87.985268"
       fx="-29.231762"
       fy="-87.985268"
       r="42.768238"
       gradientTransform="matrix(0.23379382,0,0,0.13250448,34.338867,40.844349)"
       gradientUnits="userSpaceOnUse" />
    <radialGradient
       inkscape:collect="always"
       xlink:href="#linearGradient5071"
       id="radialGradient5103"
       gradientUnits="userSpaceOnUse"
       gradientTransform="matrix(0.23379382,0,0,0.13250448,34.338867,40.844349)"
       cx="-29.231762"
       cy="-87.985268"
       fx="-29.231762"
       fy="-87.985268"
       r="42.768238" />
    <radialGradient
       inkscape:collect="always"
       xlink:href="#linearGradient5071"
       id="radialGradient5105"
       gradientUnits="userSpaceOnUse"
       gradientTransform="matrix(0.23379382,0,0,0.13250448,34.338867,40.844349)"
       cx="-29.231762"
       cy="-87.985268"
       fx="-29.231762"
       fy="-87.985268"
       r="42.768238" />
    <radialGradient
       inkscape:collect="always"
       xlink:href="#linearGradient5071"
       id="radialGradient5107"
       gradientUnits="userSpaceOnUse"
       gradientTransform="matrix(0.23379382,0,0,0.13250448,34.338867,40.844349)"
       cx="-29.231762"
       cy="-87.985268"
       fx="-29.231762"
       fy="-87.985268"
       r="42.768238" />
    <radialGradient
       inkscape:collect="always"
       xlink:href="#linearGradient5071"
       id="radialGradient5109"
       gradientUnits="userSpaceOnUse"
       gradientTransform="matrix(0.23379382,0,0,0.13250448,34.338867,40.844349)"
       cx="-29.231762"
       cy="-87.985268"
       fx="-29.231762"
       fy="-87.985268"
       r="42.768238" />
    <radialGradient
       inkscape:collect="always"
       xlink:href="#linearGradient5071"
       id="radialGradient5111"
       gradientUnits="userSpaceOnUse"
       gradientTransform="matrix(0.23379382,0,0,0.13250448,34.338867,40.844349)"
       cx="-29.231762"
       cy="-87.985268"
       fx="-29.231762"
       fy="-87.985268"
       r="42.768238" />
    <radialGradient
       inkscape:collect="always"
       xlink:href="#linearGradient5071"
       id="radialGradient5113"
       gradientUnits="userSpaceOnUse"
       gradientTransform="matrix(0.23379382,0,0,0.13250448,34.338867,40.844349)"
       cx="-29.231762"
       cy="-87.985268"
       fx="-29.231762"
       fy="-87.985268"
       r="42.768238" />
    <radialGradient
       inkscape:collect="always"
       xlink:href="#linearGradient5071"
       id="radialGradient5115"
       gradientUnits="userSpaceOnUse"
       gradientTransform="matrix(0.23379382,0,0,0.13250448,34.338867,40.844349)"
       cx="-29.231762"
       cy="-87.985268"
       fx="-29.231762"
       fy="-87.985268"
       r="42.768238" />
    <radialGradient
       inkscape:collect="always"
       xlink:href="#linearGradient5071"
       id="radialGradient5117"
       gradientUnits="userSpaceOnUse"
       gradientTransform="matrix(0.23379382,0,0,0.13250448,34.338867,40.844349)"
       cx="-29.231762"
       cy="-87.985268"
       fx="-29.231762"
       fy="-87.985268"
       r="42.768238" />
    <radialGradient
       inkscape:collect="always"
       xlink:href="#linearGradient5071"
       id="radialGradient5119"
       gradientUnits="userSpaceOnUse"
       gradientTransform="matrix(0.23379382,0,0,0.13250448,34.338867,40.844349)"
       cx="-29.231762"
       cy="-87.985268"
       fx="-29.231762"
       fy="-87.985268"
       r="42.768238" />
    <radialGradient
       inkscape:collect="always"
       xlink:href="#linearGradient5071"
       id="radialGradient5121"
       gradientUnits="userSpaceOnUse"
       gradientTransform="matrix(0.23379382,0,0,0.13250448,34.338867,40.844349)"
       cx="-29.231762"
       cy="-87.985268"
       fx="-29.231762"
       fy="-87.985268"
       r="42.768238" />
    <radialGradient
       inkscape:collect="always"
       xlink:href="#linearGradient5071"
       id="radialGradient5123"
       gradientUnits="userSpaceOnUse"
       gradientTransform="matrix(0.23379382,0,0,0.13250448,34.338867,40.844349)"
       cx="-29.231762"
       cy="-87.985268"
       fx="-29.231762"
       fy="-87.985268"
       r="42.768238" />
    <radialGradient
       inkscape:collect="always"
       xlink:href="#linearGradient5071"
       id="radialGradient5125"
       gradientUnits="userSpaceOnUse"
       gradientTransform="matrix(0.23379382,0,0,0.13250448,34.338867,40.844349)"
       cx="-29.231762"
       cy="-87.985268"
       fx="-29.231762"
       fy="-87.985268"
       r="42.768238" />
    <radialGradient
       inkscape:collect="always"
       xlink:href="#linearGradient5071"
       id="radialGradient5396"
       gradientUnits="userSpaceOnUse"
       gradientTransform="matrix(0.23379382,0,0,0.13250448,34.338867,40.844349)"
       cx="-29.231762"
       cy="-87.985268"
       fx="-29.231762"
       fy="-87.985268"
       r="42.768238" />
    <radialGradient
       inkscape:collect="always"
       xlink:href="#linearGradient5071"
       id="radialGradient5398"
       gradientUnits="userSpaceOnUse"
       gradientTransform="matrix(0.23379382,0,0,0.13250448,34.338867,40.844349)"
       cx="-29.231762"
       cy="-87.985268"
       fx="-29.231762"
       fy="-87.985268"
       r="42.768238" />
    <radialGradient
       inkscape:collect="always"
       xlink:href="#linearGradient5071"
       id="radialGradient5400"
       gradientUnits="userSpaceOnUse"
       gradientTransform="matrix(0.23379382,0,0,0.13250448,34.338867,40.844349)"
       cx="-29.231762"
       cy="-87.985268"
       fx="-29.231762"
       fy="-87.985268"
       r="42.768238" />
  </defs>
  <sodipodi:namedview
     id="base"
     pagecolor="#ffffff"
     bordercolor="#666666"
     borderopacity="1.0"
     inkscape:pageopacity="0.0"
     inkscape:pageshadow="2"
     inkscape:zoom="4.4415145"
     inkscape:cx="103.94636"
     inkscape:cy="15.98215"
     inkscape:document-units="px"
     inkscape:current-layer="layer1"
     inkscape:window-width="1440"
     inkscape:window-height="850"
     inkscape:window-x="0"
     inkscape:window-y="0"
     inkscape:showpageshadow="false"
     width="48px"
     height="48px"
     showgrid="true"
     showborder="false"
     showguides="true"
     inkscape:guide-bbox="true"
     inkscape:window-maximized="1"
     inkscape:snap-page="true"
     inkscape:snap-grids="true"
     inkscape:snap-to-guides="true">
    <inkscape:grid
       type="xygrid"
       id="grid5402"
       empspacing="5"
       visible="true"
       enabled="true"
       snapvisiblegridlinesonly="true" />
  </sodipodi:namedview>
  <metadata
     id="metadata4">
    <rdf:RDF>
      <cc:Work
         rdf:about="">
        <dc:format>image/svg+xml</dc:format>
        <dc:type
           rdf:resource="http://purl.org/dc/dcmitype/StillImage" />
      </cc:Work>
    </rdf:RDF>
  </metadata>
  <g
     inkscape:label="Layer 1"
     inkscape:groupmode="layer"
     id="layer1">
    <path
       sodipodi:type="arc"
       style="fill:url(#linearGradient3621);fill-opacity:1;fill-rule:evenodd;stroke:none"
       id="path2837"
       sodipodi:cx="73.875"
       sodipodi:cy="-80.375"
       sodipodi:rx="45.125"
       sodipodi:ry="21.625"
       d="m 119,-80.375 a 45.125,21.625 0 1 1 -90.25,0 45.125,21.625 0 1 1 90.25,0 z"
       transform="matrix(0.42290948,0,0,0.42290948,-9.5604945,62.532319)" />
    <path
       style="fill:url(#radialGradient5077);fill-opacity:1;stroke:none"
       d="m 32.059377,23.576709 c 3.27311,0.0578 5.2914,1.08392 5.43571,4.44996 0.14431,3.36603 -1.549,5.39785 -4.61743,6.29928 -3.06844,0.90144 -7.052642,1.02848 -11.04676,-2.77399 -3.994117,-3.80248 -4.325183,-8.03304 -4.325183,-8.03304 0,0 3.136186,4.24468 6.195534,4.68112 3.534499,0.50423 5.085009,-4.68112 8.358129,-4.62333 z"
       id="path3623"
       sodipodi:nodetypes="czzzcsz" />
    <path
       sodipodi:nodetypes="czzzcsz"
       id="path5079"
       d="m 32.059377,23.576709 c 3.27311,0.0578 5.2914,1.08392 5.43571,4.44996 0.14431,3.36603 -1.549,5.39785 -4.61743,6.29928 -3.06844,0.90144 -7.052642,1.02848 -11.04676,-2.77399 -3.994117,-3.80248 -4.325183,-8.03304 -4.325183,-8.03304 0,0 3.136186,4.24468 6.195534,4.68112 3.534499,0.50423 5.085009,-4.68112 8.358129,-4.62333 z"
       style="fill:url(#radialGradient5125);fill-opacity:1;stroke:none" />
    <path
       style="fill:url(#radialGradient5123);fill-opacity:1;stroke:none"
       d="m 32.059377,23.576709 c 3.27311,0.0578 5.2914,1.08392 5.43571,4.44996 0.14431,3.36603 -1.549,5.39785 -4.61743,6.29928 -3.06844,0.90144 -7.052642,1.02848 -11.04676,-2.77399 -3.994117,-3.80248 -4.325183,-8.03304 -4.325183,-8.03304 0,0 3.136186,4.24468 6.195534,4.68112 3.534499,0.50423 5.085009,-4.68112 8.358129,-4.62333 z"
       id="path5081"
       sodipodi:nodetypes="czzzcsz" />
    <path
       sodipodi:nodetypes="czzzcsz"
       id="path5083"
       d="m 32.059377,23.576709 c 3.27311,0.0578 5.2914,1.08392 5.43571,4.44996 0.14431,3.36603 -1.549,5.39785 -4.61743,6.29928 -3.06844,0.90144 -7.052642,1.02848 -11.04676,-2.77399 -3.994117,-3.80248 -4.325183,-8.03304 -4.325183,-8.03304 0,0 3.136186,4.24468 6.195534,4.68112 3.534499,0.50423 5.085009,-4.68112 8.358129,-4.62333 z"
       style="fill:url(#radialGradient5121);fill-opacity:1;stroke:none" />
    <path
       style="fill:url(#radialGradient5119);fill-opacity:1;stroke:none"
       d="m 32.059377,23.576709 c 3.27311,0.0578 5.2914,1.08392 5.43571,4.44996 0.14431,3.36603 -1.549,5.39785 -4.61743,6.29928 -3.06844,0.90144 -7.052642,1.02848 -11.04676,-2.77399 -3.994117,-3.80248 -4.325183,-8.03304 -4.325183,-8.03304 0,0 3.136186,4.24468 6.195534,4.68112 3.534499,0.50423 5.085009,-4.68112 8.358129,-4.62333 z"
       id="path5085"
       sodipodi:nodetypes="czzzcsz" />
    <path
       sodipodi:nodetypes="czzzcsz"
       id="path5087"
       d="m 32.059377,23.576709 c 3.27311,0.0578 5.2914,1.08392 5.43571,4.44996 0.14431,3.36603 -1.549,5.39785 -4.61743,6.29928 -3.06844,0.90144 -7.052642,1.02848 -11.04676,-2.77399 -3.994117,-3.80248 -4.325183,-8.03304 -4.325183,-8.03304 0,0 3.136186,4.24468 6.195534,4.68112 3.534499,0.50423 5.085009,-4.68112 8.358129,-4.62333 z"
       style="fill:url(#radialGradient5117);fill-opacity:1;stroke:none" />
    <path
       style="fill:url(#radialGradient5115);fill-opacity:1;stroke:none"
       d="m 32.059377,23.576709 c 3.27311,0.0578 5.2914,1.08392 5.43571,4.44996 0.14431,3.36603 -1.549,5.39785 -4.61743,6.29928 -3.06844,0.90144 -7.052642,1.02848 -11.04676,-2.77399 -3.994117,-3.80248 -4.325183,-8.03304 -4.325183,-8.03304 0,0 3.136186,4.24468 6.195534,4.68112 3.534499,0.50423 5.085009,-4.68112 8.358129,-4.62333 z"
       id="path5089"
       sodipodi:nodetypes="czzzcsz" />
    <path
       sodipodi:nodetypes="czzzcsz"
       id="path5091"
       d="m 32.059377,23.576709 c 3.27311,0.0578 5.2914,1.08392 5.43571,4.44996 0.14431,3.36603 -1.549,5.39785 -4.61743,6.29928 -3.06844,0.90144 -7.052642,1.02848 -11.04676,-2.77399 -3.994117,-3.80248 -4.325183,-8.03304 -4.325183,-8.03304 0,0 3.136186,4.24468 6.195534,4.68112 3.534499,0.50423 5.085009,-4.68112 8.358129,-4.62333 z"
       style="fill:url(#radialGradient5113);fill-opacity:1;stroke:none" />
    <path
       style="fill:url(#radialGradient5111);fill-opacity:1;stroke:none"
       d="m 32.059377,23.576709 c 3.27311,0.0578 5.2914,1.08392 5.43571,4.44996 0.14431,3.36603 -1.549,5.39785 -4.61743,6.29928 -3.06844,0.90144 -7.052642,1.02848 -11.04676,-2.77399 -3.994117,-3.80248 -4.325183,-8.03304 -4.325183,-8.03304 0,0 3.136186,4.24468 6.195534,4.68112 3.534499,0.50423 5.085009,-4.68112 8.358129,-4.62333 z"
       id="path5093"
       sodipodi:nodetypes="czzzcsz" />
    <path
       sodipodi:nodetypes="czzzcsz"
       id="path5095"
       d="m 32.059377,23.576709 c 3.27311,0.0578 5.2914,1.08392 5.43571,4.44996 0.14431,3.36603 -1.549,5.39785 -4.61743,6.29928 -3.06844,0.90144 -7.052642,1.02848 -11.04676,-2.77399 -3.994117,-3.80248 -4.325183,-8.03304 -4.325183,-8.03304 0,0 3.136186,4.24468 6.195534,4.68112 3.534499,0.50423 5.085009,-4.68112 8.358129,-4.62333 z"
       style="fill:url(#radialGradient5109);fill-opacity:1;stroke:none" />
    <path
       style="fill:url(#radialGradient5107);fill-opacity:1;stroke:none"
       d="m 32.059377,23.576709 c 3.27311,0.0578 5.2914,1.08392 5.43571,4.44996 0.14431,3.36603 -1.549,5.39785 -4.61743,6.29928 -3.06844,0.90144 -7.052642,1.02848 -11.04676,-2.77399 -3.994117,-3.80248 -4.325183,-8.03304 -4.325183,-8.03304 0,0 3.136186,4.24468 6.195534,4.68112 3.534499,0.50423 5.085009,-4.68112 8.358129,-4.62333 z"
       id="path5097"
       sodipodi:nodetypes="czzzcsz" />
    <path
       sodipodi:nodetypes="czzzcsz"
       id="path5099"
       d="m 32.059377,23.576709 c 3.27311,0.0578 5.2914,1.08392 5.43571,4.44996 0.14431,3.36603 -1.549,5.39785 -4.61743,6.29928 -3.06844,0.90144 -7.052642,1.02848 -11.04676,-2.77399 -3.994117,-3.80248 -4.325183,-8.03304 -4.325183,-8.03304 0,0 3.136186,4.24468 6.195534,4.68112 3.534499,0.50423 5.085009,-4.68112 8.358129,-4.62333 z"
       style="fill:url(#radialGradient5105);fill-opacity:1;stroke:none" />
    <path
       style="fill:url(#radialGradient5103);fill-opacity:1;stroke:none"
       d="m 32.059377,23.576709 c 3.27311,0.0578 5.2914,1.08392 5.43571,4.44996 0.14431,3.36603 -1.549,5.39785 -4.61743,6.29928 -3.06844,0.90144 -7.052642,1.02848 -11.04676,-2.77399 -3.994117,-3.80248 -4.325183,-8.03304 -4.325183,-8.03304 0,0 3.136186,4.24468 6.195534,4.68112 3.534499,0.50423 5.085009,-4.68112 8.358129,-4.62333 z"
       id="path5101"
       sodipodi:nodetypes="czzzcsz" />
    <g
       sodipodi:type="inkscape:box3d"
       style="fill:#00ff00;fill-opacity:1;stroke:none"
       id="g5141"
       inkscape:perspectiveID="#perspective23"
       inkscape:corner0="-1.552265 : 0.011373058 : 0 : 1"
       inkscape:corner7="-1.7249079 : -0.042518186 : 0.10796219 : 1">
      <path
         sodipodi:type="inkscape:box3dside"
         id="path5151"
         style="fill:#00ff00;fill-opacity:1;fill-rule:evenodd;stroke:none"
         inkscape:box3dsidetype="13"
         d="m 30,28.000001 0.50736,1.997211 5.412094,-35.7692428 1.472334,-16.3813862 z" />
      <path
         sodipodi:type="inkscape:box3dside"
         id="path5149"
         style="fill:#00ff00;fill-opacity:1;fill-rule:evenodd;stroke:none"
         inkscape:box3dsidetype="14"
         d="m 34.497612,30.504725 -3.990252,-0.507513 5.412094,-35.7692428 4.688523,0.5963252 z" />
      <path
         sodipodi:type="inkscape:box3dside"
         id="path5153"
         style="fill:#00ff00;fill-opacity:1;fill-rule:evenodd;stroke:none"
         inkscape:box3dsidetype="11"
         d="M 43.902133,-21.325377 40.607977,-5.1757056 35.919454,-5.7720308 37.391788,-22.153417 z" />
      <path
         sodipodi:type="inkscape:box3dside"
         id="path5145"
         style="fill:#00ff00;fill-opacity:1;fill-rule:evenodd;stroke:none"
         inkscape:box3dsidetype="5"
         d="m 35.237639,28.666167 -0.740027,1.838558 6.110365,-35.6804306 3.294156,-16.1496714 z" />
      <path
         sodipodi:type="inkscape:box3dside"
         id="path5143"
         style="fill:#00ff00;fill-opacity:1;fill-rule:evenodd;stroke:none"
         inkscape:box3dsidetype="6"
         d="M 35.237639,28.666167 30,28.000001 l 7.391788,-50.153418 6.510345,0.82804 z" />
      <path
         sodipodi:type="inkscape:box3dside"
         id="path5147"
         style="fill:#00ff00;fill-opacity:1;fill-rule:evenodd;stroke:none"
         inkscape:box3dsidetype="3"
         d="M 35.237639,28.666167 34.497612,30.504725 30.50736,29.997212 30,28.000001 z" />
    </g>
    <path
       sodipodi:nodetypes="czzzcsz"
       id="path5195"
       d="m 32.059377,23.576709 c 3.27311,0.0578 5.2914,1.08392 5.43571,4.44996 0.14431,3.36603 -1.549,5.39785 -4.61743,6.29928 -3.06844,0.90144 -7.052642,1.02848 -11.04676,-2.77399 -3.994117,-3.80248 -4.325183,-8.03304 -4.325183,-8.03304 0,0 3.136186,4.24468 6.195534,4.68112 3.534499,0.50423 5.085009,-4.68112 8.358129,-4.62333 z"
       style="fill:url(#radialGradient5400);fill-opacity:1;stroke:none" />
    <path
       style="fill:url(#radialGradient5398);fill-opacity:1;stroke:none"
       d="m 32.059377,23.576709 c 3.27311,0.0578 5.2914,1.08392 5.43571,4.44996 0.14431,3.36603 -1.549,5.39785 -4.61743,6.29928 -3.06844,0.90144 -7.052642,1.02848 -11.04676,-2.77399 -3.994117,-3.80248 -4.325183,-8.03304 -4.325183,-8.03304 0,0 3.136186,4.24468 6.195534,4.68112 3.534499,0.50423 5.085009,-4.68112 8.358129,-4.62333 z"
       id="path5197"
       sodipodi:nodetypes="czzzcsz" />
    <path
       sodipodi:nodetypes="czzzcsz"
       id="path5199"
       d="m 32.059377,23.576709 c 3.27311,0.0578 5.2914,1.08392 5.43571,4.44996 0.14431,3.36603 -1.549,5.39785 -4.61743,6.29928 -3.06844,0.90144 -7.052642,1.02848 -11.04676,-2.77399 -3.994117,-3.80248 -4.325183,-8.03304 -4.325183,-8.03304 0,0 3.136186,4.24468 6.195534,4.68112 3.534499,0.50423 5.085009,-4.68112 8.358129,-4.62333 z"
       style="fill:url(#radialGradient5396);fill-opacity:1;stroke:none" />
  </g>
</svg>
